<?xml version="1.0" encoding="iso-8859-1"?>
<!-- Generator: Adobe Illustrator 19.0.0, SVG Export Plug-In . SVG Version: 6.00 Build 0)  -->
<svg version="1.1" id="Layer_1" xmlns="http://www.w3.org/2000/svg" xmlns:xlink="http://www.w3.org/1999/xlink" x="0px" y="0px"
	 viewBox="0 0 512.002 512.002" style="enable-background:new 0 0 512.002 512.002;" xml:space="preserve">
<g>
	<path style="fill:#E64C3C;" d="M396.294,511.999H115.709c-13.798,0-25.201-10.769-25.991-24.55L73.76,208.27h364.475
		l-15.95,279.179C421.495,501.23,410.092,511.999,396.294,511.999"/>
	<path style="fill:#EEECDE;" d="M412.204,173.558c19.17,0,34.712-15.542,34.712-34.712s-15.542-34.712-34.712-34.712
		c0-16.202-11.142-29.696-26.155-33.523c0.017-0.399,0.121-0.781,0.121-1.189c0-19.17-15.542-34.712-34.712-34.712
		c-0.408,0-0.79,0.104-1.189,0.121c-3.827-15.013-17.321-26.155-33.523-26.155c-13.173,0-24.489,7.42-30.373,18.232
		c-5.884-10.813-17.2-18.232-30.373-18.232c-11.854,0-22.294,5.962-28.551,15.03c-4.157-8.86-13.086-15.03-23.517-15.03
		c-14.379,0-26.034,11.655-26.034,26.034c0,0.434,0.104,0.842,0.13,1.267c-2.829-0.746-5.745-1.267-8.808-1.267
		c-19.17,0-34.712,15.542-34.712,34.712c-19.17,0-34.712,15.542-34.712,34.712c-19.17,0-34.712,15.542-34.712,34.712
		s15.542,34.712,34.712,34.712H412.204z"/>
	<g>
		<path style="fill:#D2C1A3;" d="M386.17,124.567c-2.039,0-4.096-0.72-5.736-2.169c-3.593-3.167-3.94-8.652-0.772-12.253
			c8.235-9.329,20.089-14.683,32.542-14.683c4.799,0,8.678,3.879,8.678,8.678c0,4.79-3.879,8.678-8.678,8.678
			c-7.463,0-14.588,3.211-19.525,8.817C390.969,123.578,388.565,124.567,386.17,124.567"/>
		<path style="fill:#D2C1A3;" d="M321.382,60.745c-1.475,0-2.968-0.373-4.339-1.163c-4.148-2.404-5.571-7.706-3.159-11.854
			c7.723-13.381,22.137-21.695,37.576-21.695c4.799,0,8.678,3.888,8.678,8.678s-3.879,8.678-8.678,8.678
			c-9.277,0-17.92,4.99-22.563,13.017C327.301,59.192,324.385,60.745,321.382,60.745"/>
		<path style="fill:#D2C1A3;" d="M164.577,95.444c-3.003,0-5.91-1.553-7.515-4.33c-4.643-8.027-13.286-13.017-22.554-13.017
			c-4.799,0-8.678-3.879-8.678-8.678c0-4.79,3.879-8.678,8.678-8.678c15.438,0,29.835,8.305,37.567,21.678
			c2.412,4.148,0.989,9.459-3.159,11.863C167.545,95.071,166.052,95.444,164.577,95.444"/>
		<path style="fill:#D2C1A3;" d="M144.382,147.838c-2.222,0-4.443-0.85-6.135-2.543c-3.393-3.384-3.393-8.878,0-12.271
			c10.908-10.917,26.945-15.212,41.889-11.238c4.625,1.232,7.385,5.979,6.144,10.613c-1.232,4.643-5.97,7.385-10.622,6.153
			c-8.964-2.395-18.597,0.2-25.14,6.743C148.825,146.987,146.604,147.838,144.382,147.838"/>
		<path style="fill:#D2C1A3;" d="M308.06,104.135c-1.623,0-3.272-0.46-4.738-1.415c-4.018-2.621-5.146-7.992-2.517-12.01
			c4.92-7.541,14.744-12.453,25.027-12.54c10.249-0.338,18.744,4.452,24.133,12.427c2.69,3.966,1.649,9.364-2.326,12.054
			c-3.966,2.681-9.364,1.631-12.045-2.334c-2.699-3.992-6.925-4.625-9.633-4.79c-4.946,0.043-9.164,2.439-10.631,4.677
			C313.666,102.746,310.889,104.135,308.06,104.135"/>
		<path style="fill:#D2C1A3;" d="M203.924,86.779c-1.623,0-3.272-0.46-4.738-1.415c-4.018-2.621-5.146-7.992-2.517-12.01
			c4.92-7.541,14.744-12.453,25.027-12.54c10.006,0.113,18.753,4.452,24.133,12.427c2.69,3.966,1.649,9.364-2.326,12.054
			c-3.966,2.681-9.372,1.631-12.045-2.334c-2.708-3.983-6.578-4.808-9.633-4.79c-4.946,0.043-9.164,2.438-10.631,4.677
			C209.53,85.39,206.753,86.779,203.924,86.779"/>
		<path style="fill:#D2C1A3;" d="M255.992,147.453c-1.623,0-3.272-0.46-4.738-1.415c-4.018-2.621-5.146-7.992-2.517-12.01
			c4.92-7.541,14.744-12.453,25.027-12.54c9.633,0.078,18.744,4.452,24.133,12.427c2.69,3.966,1.649,9.364-2.326,12.054
			c-3.966,2.681-9.363,1.631-12.045-2.334c-2.699-3.983-6.751-4.816-9.633-4.79c-4.946,0.043-9.164,2.439-10.63,4.677
			C261.598,146.064,258.821,147.453,255.992,147.453"/>
		<path style="fill:#D2C1A3;" d="M229.679,39.554c-4.235,0-7.94-3.098-8.574-7.411c-1.25-8.426-8.626-14.787-17.174-14.787
			c-4.799,0-8.678-3.888-8.678-8.678S199.132,0,203.931,0c17.087,0,31.848,12.731,34.339,29.609
			c0.703,4.738-2.577,9.155-7.316,9.849C230.529,39.528,230.095,39.554,229.679,39.554"/>
	</g>
	<path style="fill:#F3D55B;" d="M316.747,321.084c0-33.549-27.197-60.746-60.746-60.746s-60.746,27.197-60.746,60.746
		s27.197,60.746,60.746,60.746S316.747,354.633,316.747,321.084"/>
	<g>
		<path style="fill:#FFFFFF;" d="M282.035,329.762c-4.799,0-8.678-3.888-8.678-8.678c0-9.572-7.784-17.356-17.356-17.356
			c-4.799,0-8.678-3.888-8.678-8.678s3.879-8.678,8.678-8.678c19.144,0,34.712,15.568,34.712,34.712
			C290.713,325.874,286.834,329.762,282.035,329.762"/>
		<path style="fill:#FFFFFF;" d="M256.001,355.796c-19.144,0-34.712-15.568-34.712-34.712c0-4.79,3.879-8.678,8.678-8.678
			c4.799,0,8.678,3.888,8.678,8.678c0,9.572,7.784,17.356,17.356,17.356c4.799,0,8.678,3.888,8.678,8.678
			S260.8,355.796,256.001,355.796"/>
	</g>
	<path style="fill:#F3D55B;" d="M438.238,208.27H73.764c-9.589,0-17.356-7.767-17.356-17.356c0-9.589,7.767-17.356,17.356-17.356
		h364.475c9.589,0,17.356,7.767,17.356,17.356C455.594,200.504,447.827,208.27,438.238,208.27"/>
	<g>
		<polygon style="fill:#FFFFFF;" points="346.596,511.999 386.862,511.999 398.95,208.27 358.685,208.27 		"/>
		<polygon style="fill:#FFFFFF;" points="116.869,208.27 157.135,208.27 169.223,511.999 128.957,511.999 		"/>
		<path style="fill:#FFFFFF;" d="M229.967,208.27v57.995c7.897-3.758,16.705-5.927,26.034-5.927c9.329,0,18.137,2.169,26.034,5.927
			V208.27H229.967z"/>
		<path style="fill:#FFFFFF;" d="M229.967,375.905v136.097h52.068V375.905c-7.897,3.758-16.705,5.927-26.034,5.927
			C246.672,381.832,237.864,379.663,229.967,375.905"/>
	</g>
</g>
<g>
</g>
<g>
</g>
<g>
</g>
<g>
</g>
<g>
</g>
<g>
</g>
<g>
</g>
<g>
</g>
<g>
</g>
<g>
</g>
<g>
</g>
<g>
</g>
<g>
</g>
<g>
</g>
<g>
</g>
</svg>
